<svg id="visual" viewBox="0 0 900 675" width="900" height="675" xmlns="http://www.w3.org/2000/svg" xmlns:xlink="http://www.w3.org/1999/xlink" version="1.1"><rect x="0" y="0" width="900" height="675" fill="#001220"></rect><defs><linearGradient id="grad1_0" x1="25%" y1="100%" x2="100%" y2="0%"><stop offset="23.333333333333336%" stop-color="#001220" stop-opacity="1"></stop><stop offset="76.66666666666666%" stop-color="#001220" stop-opacity="1"></stop></linearGradient></defs><defs><linearGradient id="grad2_0" x1="0%" y1="100%" x2="75%" y2="0%"><stop offset="23.333333333333336%" stop-color="#001220" stop-opacity="1"></stop><stop offset="76.66666666666666%" stop-color="#001220" stop-opacity="1"></stop></linearGradient></defs><g transform="translate(900, 675)"><path d="M-421.9 0C-379.5 -35.3 -337.2 -70.6 -313.8 -102C-290.5 -133.4 -286.1 -160.9 -282.3 -205.1C-278.5 -249.4 -275.3 -310.4 -248 -341.3C-220.6 -372.2 -169.3 -373 -123.9 -381.4C-78.6 -389.8 -39.3 -405.8 0 -421.9L0 0Z" fill="#FBAE3C"></path></g><g transform="translate(0, 0)"><path d="M421.9 0C361.2 25.7 300.4 51.5 295.8 96.1C291.1 140.7 342.5 204.3 341.3 248C340.1 291.7 286.3 315.6 241 331.7C195.7 347.8 159 356.2 120.2 370C81.5 383.7 40.7 402.8 0 421.9L0 0Z" fill="#FBAE3C"></path></g></svg>